Coordinates
version=1
nRows=13
nColumns=36
inDegrees=yes

Units are S.I. units (second, meters, Newtons, ...)
If the header above contains a line with 'inDegrees', this indicates whether rotational values are in degrees (yes) or radians (no).

endheader
time	pelvis_tilt	pelvis_list	pelvis_rotation	pelvis_tx	pelvis_ty	pelvis_tz	hip_flexion_r	hip_adduction_r	hip_rotation_r	knee_angle_r	knee_angle_r_beta	ankle_angle_r	subtalar_angle_r	mtp_angle_r	hip_flexion_l	hip_adduction_l	hip_rotation_l	knee_angle_l	knee_angle_l_beta	ankle_angle_l	subtalar_angle_l	mtp_angle_l	lumbar_extension	lumbar_bending	lumbar_rotation	arm_flex_r	arm_add_r	arm_rot_r	elbow_flex_r	pro_sup_r	arm_flex_l	arm_add_l	arm_rot_l	elbow_flex_l	pro_sup_l
      1.65000000	    -33.48331628	      0.08028285	      1.52615701	      0.15428337	      0.64700823	     -0.07822136	    100.71438796	    -20.97350050	      0.50047211	    100.13563531	      1.74769653	     40.43362118	     14.43440609	     -7.49999872	     99.80998995	    -15.18060136	     -1.28177728	     97.34370654	      1.69896819	     37.93449219	      2.60635703	     -7.49999872	    -28.92347731	      2.18716628	      9.02588364	    132.02558611	     -9.97509849	     81.04249941	    132.01771620	     52.14486730	    127.93133598	    -10.70418344	     74.56559585	    106.72925127	     75.33846653
      1.66666670	    -33.34156127	      0.22391237	      1.01964535	      0.15264136	      0.64400252	     -0.06761974	    102.83637123	    -20.54873670	      0.83268739	    101.01639589	      1.76306871	     38.94196847	     13.36095326	     -7.49999885	    101.85255695	    -15.48096247	     -0.97471667	     98.36882023	      1.71685979	     36.59027400	      1.75751670	     -7.49999885	    -29.32221145	      1.29679953	      9.01546365	    132.72795686	     -9.36021644	     79.46513013	    130.45441819	     51.80256065	    130.40507081	    -12.03281688	     76.28786723	    108.02332307	     73.73633111
      1.68333330	    -33.12159841	      0.30003224	      0.37324999	      0.16280516	      0.64514631	     -0.06797301	    104.05837425	    -19.97677975	      0.80045279	    101.23967518	      1.76696567	     37.68121237	     12.35190059	     -7.49999900	    103.15235549	    -15.79063956	     -0.62423500	     98.86281594	      1.72548165	     35.54989760	      1.06957872	     -7.49999900	    -29.00783031	      0.66760112	      8.72448760	    130.29470391	     -8.85151546	     82.33021688	    130.29421860	     52.11912685	    127.87927047	    -12.47601394	     76.02651935	    109.11936100	     71.31645905
      1.70000000	    -33.06086584	      0.38741312	     -0.16518911	      0.16153756	      0.64366559	     -0.05764051	    104.86542711	    -19.25542843	      0.71319063	    101.07442055	      1.76408143	     36.37188927	     11.16059037	     -7.49999953	    104.04755657	    -16.13731174	     -0.38957751	     98.92304636	      1.72653287	     34.63490344	      0.60296766	     -7.49999953	    -28.91924041	     -0.19331158	      9.84305581	    130.14352179	     -7.20902096	     84.60826238	    131.70704744	     51.91794760	    127.48433753	    -12.90577471	     79.11416288	    107.99977926	     58.92650015
      1.71666670	    -33.27262384	      0.37394128	     -0.64608717	      0.15632531	      0.65628220	     -0.05312999	    105.14598279	    -18.42954986	      0.28184442	    100.14596974	      1.74787690	     34.96735607	      9.86738379	     -7.49999972	    104.60707547	    -16.42612844	     -0.21213782	     98.35683918	      1.71665069	     33.73297493	      0.30588642	     -7.49999972	    -28.67798081	     -1.24771883	     10.38479607	    127.97854900	    -10.23851897	     84.08196065	    128.65890668	     56.29983127	    127.16884638	    -10.93515401	     78.49227787	    103.24045990	     66.12072829
      1.73333330	    -33.34846052	      0.32486640	     -1.20550627	      0.16451569	      0.64898398	     -0.05349897	    105.01917838	    -17.60072770	     -0.25770529	     99.21262343	      1.73158694	     34.02433660	      9.16564584	     -7.49999973	    104.79551359	    -16.77694799	      0.03845849	     97.84022890	      1.70763414	     33.01310339	      0.11525196	     -7.49999973	    -28.24424811	     -1.83922641	      9.74061014	    127.65849116	    -10.31780520	     83.68529668	    129.11164855	     56.45860725	    128.12055383	    -10.65080981	     77.40220654	    103.25600589	     65.78114038
      1.75000000	    -33.36219539	      0.37903535	     -1.60717970	      0.16689577	      0.65322100	     -0.05249332	    104.42799681	    -16.84174933	     -0.67951162	     98.06215803	      1.71150753	     33.05952339	      8.03007729	     -7.49999973	    104.38223440	    -17.04902609	     -0.01096573	     97.09438374	      1.69461668	     32.52935085	     -0.12244805	     -7.49999973	    -27.98093073	     -2.33029416	      9.62004061	    126.72120382	    -11.14304981	     84.79724991	    130.35612412	     56.45260934	    127.39038845	    -10.79257164	     78.66672559	    102.62242569	     65.78996391
      1.76666670	    -33.76912617	      0.35899623	     -1.99476072	      0.17481370	      0.65991766	     -0.04532911	    103.89187836	    -15.95783181	     -1.13420023	     96.75550804	      1.68870218	     32.31392649	      7.04468118	     -7.49999974	    104.10052660	    -17.27985030	      0.11250881	     96.20317709	      1.67906219	     32.36620545	     -0.19161890	     -7.49999974	    -26.75371791	     -3.43909572	     10.83824003	    125.95738995	    -12.86525232	     84.02774770	    131.83672301	     56.40247144	    127.84189573	     -8.77621525	     79.94844082	     99.97658511	     65.56493856
      1.78333330	    -33.95688033	      0.26207444	     -2.30426571	      0.18533977	      0.66525060	     -0.03772336	    102.72223666	    -15.08730222	     -1.61017335	     95.32721933	      1.66377384	     31.87096647	      6.40886555	     -7.49999975	    103.20224134	    -17.55144804	      0.26808633	     95.11885413	      1.66013719	     32.51902899	      0.11840240	     -7.49999975	    -25.67479372	     -3.71619221	     10.97075281	    124.44989662	    -10.71217868	     85.64741383	    130.99814216	     56.63757667	    126.76910673	     -9.99548057	     80.09646995	    103.64137990	     65.14484072
      1.80000000	    -34.43968658	      0.14957635	     -2.58303243	      0.18953115	      0.66790775	     -0.03594105	    101.66694883	    -14.31465221	     -2.11909292	     93.89602670	      1.63879482	     31.80828088	      6.24396953	     -7.49999976	    102.45102108	    -17.84007498	      0.40325398	     94.02117144	      1.64097901	     32.62506071	      0.42101930	     -7.49999976	    -24.69451953	     -3.88186005	     10.41874398	    123.08308988	    -11.53843794	     84.95182092	    130.98964312	     57.01433477	    126.43427475	     -9.77109337	     80.92978195	    101.98527406	     64.58268671
      1.81666670	    -35.29993851	      0.01185035	     -2.69782228	      0.20247838	      0.69282553	     -0.03316173	    100.10171988	    -13.57942419	     -2.73696662	     91.54276850	      1.59772272	     31.56548311	      5.69827421	     -7.49999978	    101.31308131	    -18.00847475	      0.33980767	     92.10409817	      1.60751977	     32.82628804	      0.96231811	     -7.49999978	    -23.65021625	     -4.55537870	     10.20449971	    120.73828550	    -13.39799262	     85.73459504	    128.27223314	     57.08564224	    125.87281229	     -8.88012847	     83.57917673	     99.48137162	     64.40744051
      1.83333330	    -36.26441803	     -0.06223863	     -2.87813277	      0.21821595	      0.71043281	     -0.03517416	     97.97364546	    -12.94717456	     -3.44765905	     88.48336748	      1.54432610	     31.52044446	      5.78068436	     -7.49999978	     99.45207903	    -18.13129396	      0.04487296	     89.51775172	      1.56237951	     32.99409927	      1.79196926	     -7.49999978	    -22.54298763	     -4.91345217	     10.26197131	    117.63434739	    -15.03780048	     87.90485503	    128.63076756	     57.20158847	    122.91440996	     -7.62612345	     83.08466238	     98.13259506	     64.26117376
      1.85000000	    -36.57657245	     -0.20512507	     -3.10724639	      0.22441345	      0.71823734	     -0.03403801	     95.18553764	    -12.21683345	     -4.08115693	     85.34711629	      1.48958819	     31.33880793	      5.71266579	     -7.49999978	     96.88909120	    -18.32756848	     -0.30853060	     86.84626599	      1.51575328	     32.67297568	      2.08531275	     -7.49999978	    -22.25019099	     -4.88283656	     10.37431186	    118.69878837	    -15.69552620	     84.11383438	    131.98481331	     57.33638900	    124.17298295	     -6.36133243	     79.76186241	     97.95800242	     64.14835310
